<svg xmlns="http://www.w3.org/2000/svg" viewBox="0 0 900 560" role="img" aria-labelledby="title desc">
  <title id="title">K-pop rehearsal stage</title>
  <desc id="desc">A stylized practice room stage with lights, screens, and a trainee silhouette.</desc>
  <rect width="900" height="560" fill="#e8edf3"/>
  <rect x="0" y="350" width="900" height="210" fill="#cad4df"/>
  <path d="M0 0h900v120H0z" fill="#1f2730"/>
  <path d="M140 120h620l80 250H60z" fill="#f7f9fb"/>
  <path d="M180 142h540l48 190H132z" fill="#dfe7ee"/>
  <path d="M250 166h400l28 128H222z" fill="#ffffff"/>
  <rect x="290" y="190" width="320" height="78" rx="8" fill="#0b8f8f"/>
  <rect x="312" y="210" width="86" height="14" rx="7" fill="#e6f4f3"/>
  <rect x="418" y="210" width="170" height="14" rx="7" fill="#e6f4f3"/>
  <rect x="312" y="238" width="212" height="12" rx="6" fill="#f4b942"/>
  <circle cx="128" cy="76" r="22" fill="#f4b942"/>
  <circle cx="772" cy="76" r="22" fill="#f4b942"/>
  <path d="M128 98 40 350h160z" fill="#f4b942" opacity=".24"/>
  <path d="M772 98 700 350h160z" fill="#e0523f" opacity=".2"/>
  <rect x="220" y="370" width="460" height="76" rx="8" fill="#1e2229"/>
  <rect x="250" y="388" width="120" height="12" rx="6" fill="#e0523f"/>
  <rect x="390" y="388" width="210" height="12" rx="6" fill="#0b8f8f"/>
  <rect x="250" y="418" width="350" height="10" rx="5" fill="#f4b942"/>
  <ellipse cx="450" cy="470" rx="310" ry="42" fill="#aebbc8"/>
  <circle cx="450" cy="255" r="42" fill="#1e2229"/>
  <path d="M406 336c10-48 24-70 44-70s34 22 44 70l12 78H394z" fill="#1e2229"/>
  <path d="M408 340c-42 12-78 38-102 78" fill="none" stroke="#1e2229" stroke-width="18" stroke-linecap="round"/>
  <path d="M492 340c42 12 78 38 102 78" fill="none" stroke="#1e2229" stroke-width="18" stroke-linecap="round"/>
  <path d="M424 414 390 500" fill="none" stroke="#1e2229" stroke-width="20" stroke-linecap="round"/>
  <path d="M476 414 510 500" fill="none" stroke="#1e2229" stroke-width="20" stroke-linecap="round"/>
  <rect x="64" y="414" width="112" height="64" rx="8" fill="#ffffff"/>
  <rect x="724" y="414" width="112" height="64" rx="8" fill="#ffffff"/>
  <rect x="84" y="432" width="72" height="10" rx="5" fill="#0b8f8f"/>
  <rect x="744" y="432" width="72" height="10" rx="5" fill="#e0523f"/>
  <rect x="84" y="454" width="44" height="8" rx="4" fill="#66727f"/>
  <rect x="744" y="454" width="44" height="8" rx="4" fill="#66727f"/>
</svg>
